<svg id="Layer_1" data-name="Layer 1" xmlns="http://www.w3.org/2000/svg" xmlns:xlink="http://www.w3.org/1999/xlink" viewBox="0 0 876 259"><defs><style>.cls-1{fill:url(#linear-gradient);}.cls-2{fill:url(#linear-gradient-2);}</style><linearGradient id="linear-gradient" x1="367.76" y1="157.27" x2="876" y2="157.27" gradientUnits="userSpaceOnUse"><stop offset="0.18" stop-color="#fbed1d"/><stop offset="0.27" stop-color="#f8cb35"/><stop offset="0.41" stop-color="#f39a57"/><stop offset="0.55" stop-color="#f07471"/><stop offset="0.67" stop-color="#ed5884"/><stop offset="0.78" stop-color="#ec4890"/><stop offset="0.87" stop-color="#eb4294"/></linearGradient><linearGradient id="linear-gradient-2" x1="4.44" y1="252.79" x2="237.04" y2="23.74" xlink:href="#linear-gradient"/></defs><title>Lume horizontal name LOGO and ICON</title><path class="cls-1" d="M367.76,118.62h24.83v52.87h37.87v22.92h-62.7Zm130,41.79V118.62h25.77v41.47c0,8.54,6.07,13,12.89,13s12.9-4.37,12.9-12.45v-42h25.77v41.25c0,24.27-16.26,36.06-38.89,36.06S497.72,184.14,497.72,160.41Zm149.52-41.79h26.42L692,145.26l18.35-26.64h26.41v75.79H712l0-37.51L692.38,184h-.76L672,156.89v37.52H647.24Zm163.58,0h64.64v20.79H835.64v7.68h35v18.3h-35v8.23H876v20.79H810.82Z"/><path class="cls-2" d="M64.63.63,0,65.28V259.1H193.9l64.57-64.58V.63Zm86.19,215.16H43.12V87h43v85.67h64.66Z"/></svg>